# Blender 4.5.3 LTS
# www.blender.org
mtllib CitySkybox.mtl
o Cube
v 662.540894 -662.540833 662.540771
v 662.540771 -662.540833 -662.540894
v -662.540771 -662.540833 662.540894
v -662.540894 -662.540833 -662.540771
v 662.540894 662.540833 662.540771
v 662.540771 662.540833 -662.540894
v -662.540771 662.540833 662.540894
v -662.540894 662.540833 -662.540771
vn -0.5774 0.5774 -0.5774
vn 0.5774 0.5774 -0.5774
vn 0.5774 -0.5774 -0.5774
vn -0.5774 -0.5774 -0.5774
vn 0.5774 0.5774 0.5774
vn 0.5774 -0.5774 0.5774
vn -0.5774 -0.5774 0.5774
vn -0.5774 0.5774 0.5774
vt 0.499410 0.666426
vt 0.250057 0.666955
vt 0.250057 0.999328
vt 0.499410 0.999328
vt 0.250057 0.333333
vt 0.000520 0.333333
vt 0.000520 0.666955
vt 0.999625 0.333333
vt 0.748170 0.333333
vt 0.748170 0.666714
vt 0.999625 0.666955
vt 0.499996 0.000081
vt 0.250057 0.000081
vt 0.499996 0.333333
vt 0.499747 0.333333
vt 0.499747 0.666714
vt 0.749435 0.333333
vt 0.749435 0.666714
s 1
g Cube_Material.001
usemtl Material.001
f 1/1/1 3/2/2 7/3/3 5/4/4
f 4/5/5 8/6/6 7/7/3 3/2/2
f 8/8/6 6/9/7 5/10/4 7/11/3
f 6/12/7 8/13/6 4/5/5 2/14/8
f 2/15/8 4/5/5 3/2/2 1/16/1
f 6/17/7 2/15/8 1/16/1 5/18/4
