# Blender 4.5.3 LTS
# www.blender.org
mtllib Arrow.mtl
o Arrow5
v -0.012700 -0.153896 0.001900
v -0.012700 -0.152071 0.003865
v -0.012700 -0.055479 0.059663
v -0.012700 -0.054922 0.059315
v -0.012700 -0.054922 0.038186
v -0.012700 0.147853 0.037932
v -0.012700 0.151525 0.036939
v -0.012700 0.153510 0.034458
v -0.012700 0.153896 0.031180
v 0.012700 -0.153896 0.001900
v 0.012700 -0.152071 0.003865
v 0.012700 -0.055479 0.059663
v 0.012700 -0.054922 0.059315
v 0.012700 -0.054668 0.037932
v 0.012700 0.147853 0.037932
v 0.012700 0.151525 0.036939
v 0.012700 0.153510 0.034458
v 0.012700 0.153896 0.031180
v -0.012700 -0.153896 -0.001900
v -0.012700 -0.152071 -0.003865
v -0.012700 -0.055479 -0.059663
v -0.012700 -0.054922 -0.059315
v -0.012700 -0.054668 -0.037932
v -0.012700 0.147853 -0.037932
v -0.012700 0.151525 -0.036939
v -0.012700 0.153510 -0.034458
v -0.012700 0.153896 -0.031180
v 0.012700 -0.153896 -0.001900
v 0.012700 0.153896 -0.031180
v 0.012700 0.153510 -0.034458
v 0.012700 0.151525 -0.036939
v 0.012700 0.147853 -0.037932
v 0.012700 -0.054922 -0.038186
v 0.012700 -0.054922 -0.059315
v 0.012700 -0.055479 -0.059663
v 0.012700 -0.152071 -0.003865
v -0.012700 -0.054668 0.037932
v 0.012700 -0.054922 0.038186
v -0.012700 -0.054922 -0.038186
v 0.012700 -0.054668 -0.037932
v 0.012700 -0.063097 0.010538
v 0.012700 -0.063097 -0.010538
v -0.012700 -0.063097 -0.010538
v -0.012700 -0.063097 0.010538
v -0.012700 -0.061925 0.012890
v -0.012700 -0.061925 -0.012890
v 0.012700 -0.061925 -0.012890
v 0.012700 -0.061925 0.012890
v 0.012700 0.148471 0.030664
v -0.012700 0.148471 -0.030664
v -0.012700 0.148124 -0.033919
v 0.012700 0.148124 0.033919
v 0.012700 0.148471 -0.030664
v -0.012700 0.148471 0.030664
v -0.012700 0.148124 0.033919
v 0.012700 0.148124 -0.033919
vn -0.0000 -0.6234 0.7819
vn -0.0000 -0.9308 0.3655
vn -0.0000 0.9983 0.0585
vn -0.0000 0.9226 0.3857
vn -0.0000 0.5480 0.8365
vn -0.0000 0.1316 0.9913
vn -0.0000 0.3827 0.9239
vn -0.0000 0.0168 0.9999
vn -0.0000 1.0000 -0.0000
vn -0.0000 0.5290 0.8486
vn -0.0000 -0.9308 -0.3655
vn -0.0000 -0.6234 -0.7819
vn -0.0000 0.9983 -0.0585
vn -0.0000 0.9226 -0.3857
vn -0.0000 0.5480 -0.8365
vn -0.0000 0.1316 -0.9913
vn -0.0000 0.3827 -0.9239
vn -0.0000 0.0168 -0.9999
vn -0.0000 0.5290 -0.8486
vn 1.0000 -0.0000 -0.0000
vn -1.0000 -0.0000 -0.0000
vn -0.0000 0.7071 0.7071
vn -0.0000 0.7071 -0.7071
vt 0.387106 0.909880
vt 0.393368 0.909880
vt 0.393368 0.990819
vt 0.387106 0.990819
vt 0.236908 0.731383
vt 0.247353 0.731383
vt 0.247353 0.812322
vt 0.236908 0.812322
vt 0.255260 0.731383
vt 0.255260 0.812322
vt 0.266962 0.731383
vt 0.266962 0.812322
vt 0.912311 0.731383
vt 0.912311 0.812322
vt 0.079308 0.909880
vt 0.079308 0.990819
vt 0.010201 0.909880
vt 0.077533 0.909880
vt 0.077533 0.990819
vt 0.010201 0.990819
vt 0.405477 0.909880
vt 0.405477 0.990819
vt 0.411738 0.909880
vt 0.411738 0.990819
vt 0.038193 0.812322
vt 0.038193 0.731383
vt 0.027748 0.812322
vt 0.027748 0.731383
vt 0.019841 0.812322
vt 0.019841 0.731383
vt 0.008139 0.812322
vt 0.008139 0.731383
vt 0.724649 0.822345
vt 0.724649 0.903284
vt 0.079300 0.903284
vt 0.079300 0.822345
vt 0.719536 0.909880
vt 0.719536 0.990819
vt 0.078491 0.822345
vt 0.078491 0.903284
vt 0.011159 0.903284
vt 0.011159 0.822344
vt 0.009383 0.903284
vt 0.009383 0.822344
vt 0.987027 0.300207
vt 0.969740 0.298562
vt 0.969740 0.103137
vt 0.987027 0.101492
vt 0.006224 0.428345
vt 0.023511 0.429989
vt 0.023511 0.625415
vt 0.006224 0.627059
vt 0.007453 0.637505
vt 0.024615 0.635787
vt 0.007453 0.417899
vt 0.024615 0.419618
vt 0.012039 0.188533
vt 0.299298 0.159775
vt 0.295561 0.167271
vt 0.006224 0.194795
vt 0.985798 0.310652
vt 0.968636 0.308934
vt 0.913121 0.731383
vt 0.913121 0.812322
vt 0.006224 0.206904
vt 0.295561 0.234428
vt 0.987027 0.521648
vt 0.987027 0.533756
vt 0.697690 0.561281
vt 0.697690 0.494123
vt 0.981212 0.540018
vt 0.693953 0.568777
vt 0.981212 0.515386
vt 0.693953 0.486627
vt 0.968636 0.092765
vt 0.012039 0.213165
vt 0.299298 0.241924
vt 0.321612 0.389863
vt 0.319837 0.390970
vt 0.673415 0.717823
vt 0.671639 0.716716
vt 0.671639 0.338688
vt 0.673415 0.337582
vt 0.319837 0.010729
vt 0.321612 0.011836
vt 0.321612 0.079168
vt 0.322422 0.079977
vt 0.670830 0.406830
vt 0.671639 0.406020
vt 0.671639 0.649384
vt 0.670830 0.648574
vt 0.322422 0.321722
vt 0.321612 0.322531
vt 0.985798 0.091047
vt 0.025480 0.648574
vt 0.013778 0.645412
vt 0.979473 0.318559
vt 0.967771 0.321722
vt 0.013778 0.409993
vt 0.025480 0.406830
vt 0.967771 0.079977
vt 0.979473 0.083140
s 1
g Arrow5_Arrow5
usemtl Arrow5
f 2/1/1 1/2/2 10/3/2 11/4/1
f 9/5/3 8/6/4 17/7/4 18/8/3
f 8/6/4 7/9/5 16/10/5 17/7/4
f 7/9/5 6/11/6 15/12/6 16/10/5
f 6/11/6 37/13/7 14/14/7 15/12/6
f 3/15/8 2/1/1 11/4/1 12/16/8
f 5/17/9 4/18/9 13/19/9 38/20/9
f 4/18/10 3/15/8 12/16/8 13/19/10
f 19/21/11 28/22/11 10/3/2 1/2/2
f 20/23/12 36/24/12 28/22/11 19/21/11
f 9/5/3 18/8/3 29/25/13 27/26/13
f 27/26/13 29/25/13 30/27/14 26/28/14
f 26/28/14 30/27/14 31/29/15 25/30/15
f 25/30/15 31/29/15 32/31/16 24/32/16
f 24/33/16 32/34/16 40/35/17 23/36/17
f 21/37/18 35/38/18 36/24/12 20/23/12
f 39/39/9 33/40/9 34/41/9 22/42/9
f 22/42/19 34/41/19 35/43/18 21/44/18
f 18/45/20 49/46/20 53/47/20 29/48/20
f 27/49/21 50/50/21 54/51/21 9/52/21
f 8/53/21 9/52/21 54/51/21 55/54/21
f 26/55/21 51/56/21 50/50/21 27/49/21
f 36/57/20 47/58/20 42/59/20 28/60/20
f 17/61/20 52/62/20 49/46/20 18/45/20
f 37/13/7 5/63/22 38/64/22 14/14/7
f 40/35/17 33/40/23 39/39/23 23/36/17
f 10/65/20 28/60/20 42/59/20 41/66/20
f 19/67/21 1/68/21 44/69/21 43/70/21
f 44/69/21 1/68/21 2/71/21 45/72/21
f 20/73/21 19/67/21 43/70/21 46/74/21
f 47/58/20 56/75/20 53/47/20 42/59/20
f 11/76/20 10/65/20 41/66/20 48/77/20
f 48/77/20 13/78/20 12/79/20 11/76/20
f 45/72/21 2/71/21 3/80/21 4/81/21
f 46/74/21 22/82/21 21/83/21 20/73/21
f 47/58/20 36/57/20 35/84/20 34/85/20
f 47/58/20 34/85/20 33/86/20 40/87/20
f 46/74/21 23/88/21 39/89/21 22/82/21
f 45/72/21 4/81/21 5/90/21 37/91/21
f 48/77/20 14/92/20 38/93/20 13/78/20
f 41/66/20 42/59/20 53/47/20 49/46/20
f 43/70/21 44/69/21 54/51/21 50/50/21
f 54/51/21 44/69/21 45/72/21 55/54/21
f 46/74/21 43/70/21 50/50/21 51/56/21
f 48/77/20 41/66/20 49/46/20 52/62/20
f 30/94/20 29/48/20 53/47/20 56/75/20
f 55/54/21 6/95/21 7/96/21 8/53/21
f 52/62/20 17/61/20 16/97/20 15/98/20
f 51/56/21 26/55/21 25/99/21 24/100/21
f 56/75/20 32/101/20 31/102/20 30/94/20
f 55/54/21 45/72/21 37/91/21 6/95/21
f 51/56/21 24/100/21 23/88/21 46/74/21
f 56/75/20 47/58/20 40/87/20 32/101/20
f 52/62/20 15/98/20 14/92/20 48/77/20
