# Blender 4.5.3 LTS
# www.blender.org
o Cube
v -1.000000 0.000000 0.223527
v -1.000000 0.154961 -0.086394
v 1.000000 -0.000000 0.890548
v 1.000000 1.000000 -0.649754
v -1.000000 -0.154961 -0.086394
v 1.000000 -1.000000 -0.649754
vn 1.0000 -0.0000 -0.0000
vn -0.1971 -0.8223 0.5339
vn -0.2711 -0.0000 -0.9625
vn -0.1971 0.8223 0.5339
vn -1.0000 -0.0000 -0.0000
vn -0.1475 -0.8846 0.4423
vn -0.1475 0.8846 0.4423
vt 0.375000 0.750000
vt 0.625000 1.000000
vt 0.375000 1.000000
vt 0.625000 0.000000
vt 0.375000 0.250000
vt 0.375000 0.000000
vt 0.375000 0.500000
vt 0.125000 0.750000
vt 0.125000 0.500000
vt 0.625000 0.750000
vt 0.625000 0.500000
vt 0.625000 0.250000
s 1
f 4/1/1 3/2/1 6/3/1
f 3/4/2 5/5/2 6/6/2
f 2/7/3 6/8/3 5/9/3
f 2/7/4 3/10/4 4/1/4
f 5/5/5 1/11/5 2/7/5
f 3/4/6 1/12/6 5/5/6
f 2/7/3 4/1/3 6/8/3
f 2/7/7 1/11/7 3/10/7
